<?xml version="1.0" encoding="utf-8"?>
<!-- Generator: Adobe Illustrator 16.0.0, SVG Export Plug-In . SVG Version: 6.00 Build 0)  -->
<!DOCTYPE svg PUBLIC "-//W3C//DTD SVG 1.1//EN" "http://www.w3.org/Graphics/SVG/1.1/DTD/svg11.dtd" [
	<!ENTITY ns_flows "http://ns.adobe.com/Flows/1.0/">
	<!ENTITY ns_extend "http://ns.adobe.com/Extensibility/1.0/">
	<!ENTITY ns_ai "http://ns.adobe.com/AdobeIllustrator/10.0/">
	<!ENTITY ns_graphs "http://ns.adobe.com/Graphs/1.0/">
]>
<svg version="1.1" xmlns:x="&ns_extend;" xmlns:i="&ns_ai;" xmlns:graph="&ns_graphs;"
	 xmlns="http://www.w3.org/2000/svg" xmlns:xlink="http://www.w3.org/1999/xlink" xmlns:a="http://ns.adobe.com/AdobeSVGViewerExtensions/3.0/"
	 x="0px" y="0px" width="864px" height="864px" viewBox="0 0 864 864" enable-background="new 0 0 864 864" xml:space="preserve">
<g id="Layer_2">
	<path fill-rule="evenodd" clip-rule="evenodd" fill="#F5DF05" d="M667.79,324.884c6.061,16.517-4.946,75.389-32.219,90.973
		s-119.479,37.932-124.675,66.369s10.389,79.086,23.376,89.476s29.997,74.658,16.943,97.402s-26.034,22.078-15.645,44.156
		s90.91-1.298,114.286,22.078s-11.688,45.454-11.688,45.454s-105.522,30.835-149.515,25.71s-143.714,6.05-135.46-11.424
		c18.403-38.961,85.775-7.252,95.365-28.571c7.887-17.532,1.299-48.053,0-92.229c-0.25-8.52-34.192-3.918-33.979,0
		s-164.722,119.501-198.488,96.125s30.209-138.956,61.531-135.064s88.576,50.974,102.105,53.246s36.363-29.87,45.454-68.831
		s30.381-88.312,6.749-107.792s-150.611-9.889-150.611-9.889c-10.683-3.489-66.347-15.89-77.188-3.489
		c18.199-20.817-77.798-89.219-77.775-114.016c0.021-22.869,24.799-54.553,48.176-59.683s86.518,19.925,103.09-15.52
		s-34.43-70.129-43.435-84.416s-23.792-110.39-23.792-110.39s67.227,36.364,161.201-51.183c8.552-7.967-6.155,95.338,101.09,79.754
		c0,0-58.107,49.351-25.427,85.714c23.454,26.098,97.195,44.16,140.26,44.156S655.853,292.352,667.79,324.884z"/>
</g>
<g id="Layer_1">
	<path fill-rule="evenodd" clip-rule="evenodd" d="M479.471,690.529c11.6-8.557,21.217-14.9,29.91-22.326
		c5.938-5.071,7.386-11.726,4.15-19.901c-4.197-10.606-7.198-21.76-9.72-32.903c-0.619-2.731,2.625-6.338,4.094-9.542
		c1.17,0.249,2.341,0.497,3.511,0.746c2.036,9.265,2.734,19.119,6.487,27.626c3.707,8.408,10.5,15.456,16.613,24.049
		c-9.749,10.95-19.813,23.064-30.782,34.296c-7.641,7.823-7.631,16.213,0.254,21.688c10.846,7.533,15.337,16.569,15.549,28.955
		c9.406-3.593,12.343-9.134,6.611-15.546c-9.671-10.821-4.976-19.81,0.944-29.42c2.369-3.848,4.631-7.764,7.931-13.312
		c0.918,1.949,1.389,2.826,1.755,3.745c8.032,20.145,26.446,30.531,48.12,27.117c3.129-0.492,6.398-0.614,9.349-1.638
		c23.849-8.283,44.956-2.306,64.207,12.439c5.287,4.051,12.411,8.128,7.909,16.864c-3.976,7.718-13.39,11.221-21.735,7.801
		c-4.826-1.977-10.264-4.29-13.46-8.102c-15.526-18.52-36.038-14.257-55.758-12.758c-6.447,0.489-12.893,3.228-18.923,5.88
		c-2.426,1.068-5.288,4.791-5.11,7.086c0.172,2.21,3.799,5.529,6.277,5.901c5.368,0.805,11.196,0.967,16.43-0.294
		c9.129-2.199,17.734-1.63,24.816,4.214c12.638,10.428,27.58,8.115,43.062,17.066c1.554,0.898,3.628,1.53,6.792,2.966
		c7.597,23.148-43.922,32.513-71.313,34.592c-39.893,3.029-79.958,3.729-119.896,6.266c-15.272,0.971-30.529,6.701-45.556,5.891
		c-19.686-1.063-39.292-5.812-58.585-10.425c-5.021-1.201-11.658-7.401-12.278-12.014c-0.649-4.837,4.002-11.579,8.142-15.657
		c16.428-16.192,36.022-17.825,57.553-11.732c16.333,4.622,25.03-0.46,29.489-16.299c3.228-11.468,5.615-23.229,7.506-35
		c2.355-14.665-3.544-27.403-10.616-40.054c-17.439,12.807-34.384,25.234-51.312,37.686c-13.631,10.027-28.487,16.466-45.77,16.593
		c-18.146,0.133-29.777,12.812-42.644,22.915c-16.566,13.007-36.262,17.958-56.222,22.299c-2.716,0.591-5.531,0.726-8.254,1.289
		c-13.074,2.702-23.14-3.624-28.13-15.931c-9.805-24.186-3.041-46.408,6.577-68.557c2.378-5.474,4.486-11.068,6.574-16.662
		c4.76-12.747,10.249-24.719,24.933-29.098c2.496-0.743,4.734-3.033,6.616-5.054c19.969-21.429,42.481-16.904,60.384-6.794
		c12.806,7.229,24.242,16.961,37.252,23.726c10.689,5.558,22.53,9.733,34.346,12.063c12.626,2.492,22.777-4.76,26.188-16.523
		c9.446-32.592,19.919-65.209,25.232-98.573c4.345-27.284-6.447-47.107-37.809-51.674c-17.793-2.591-35.829-5.662-53.655-5.134
		c-12.191,0.361-24.153,6.77-36.333,10.042c-4.646,1.248-9.696,2.088-14.41,1.612c-3.257-0.33-6.255-3.233-9.368-4.987
		c2.615-3.335,4.591-8.468,7.965-9.667c9.833-3.494,20.098-6.329,30.423-7.772c24.545-3.428,49.165-6.972,73.872-8.294
		c11.53-0.618,23.688,2.668,34.928,6.198c19.48,6.118,25.981,22.346,29.882,40.896c5.188,24.672-3.23,47.155-9.313,70.027
		c-4.143,15.572-9.546,30.811-14.391,46.196c-0.105,0.335-0.345,0.645-0.386,0.981c-1.333,11.015,9.319,13.703,14.536,19.974
		c3.213,3.861,9.183,5.86,14.305,7.4c1.291,0.39,5.181-3.857,5.988-6.542c3.836-12.747,7.801-25.578,2.347-39.051
		c-0.905-2.234,0.263-5.307,0.472-7.991c2.686,0.76,6.088,0.731,7.936,2.412c11.284,10.253,8.267,23.826,7.46,36.616
		C482.826,668.767,481.104,678.044,479.471,690.529z M390.124,691.83c-0.354-0.885-0.708-1.77-1.061-2.654
		c-4.419-0.652-8.818-1.513-13.259-1.921c-16.193-1.487-31.256-4.899-44.726-15.507c-13.125-10.338-27.903-18.608-42.122-27.522
		c-7.958-4.988-15.243-5.958-21.312,3.688c-2.926,4.65-8.034,7.87-11.74,12.099c-14.521,16.569-31.898,31.939-35.116,55.057
		c-5.112,36.719-1.847,48.805,38.545,37.753c36.835-10.077,71.732-27.534,106.999-42.852
		C375.213,706.111,382.243,697.991,390.124,691.83z M477.9,756.163c5.072-9.794,10.205-16.838,12.36-24.698
		c2.042-7.455,0.842-16.176-8.627-18.966c-10.358-3.053-21.384,2.245-24.896,10.755c-5.272,12.77-1.912,32.357,10.273,39.53
		c2.875,1.691,6.023,6.206,6.332,8.969c-0.481,1.727-5.532,4.396-8.613,5.007c-11.254,2.231-22.603,4.883-33.992,5.299
		c-13.954,0.51-27.987-1.51-41.982-1.441c-3.652,0.018-8.272-0.921-10.93,5.739c-1.313,4.045-4.344,6.02,5.593,11.47
		c1.336,0.732,5.134,1.084,6.833,1.301c12.121,1.551,24.285,4.342,36.391,4.133c35.079-0.605,70.185-1.727,105.183-4.076
		c18.034-1.211,35.993-4.856,53.722-8.64c7.134-1.522,16.199-4.801,14.519-14.965c-1.556-9.406-9.493-11.252-17.932-10.682
		c-14.184,0.96-28.573,3.979-42.496,2.516C518.351,765.176,497.387,759.863,477.9,756.163z"/>
	<path fill-rule="evenodd" clip-rule="evenodd" d="M480.45,139.748c-10.295,14.514-20.306,29.242-30.995,43.46
		c-6.008,7.99-7.219,15.104-1.757,24.066c14.848,24.366,37.543,38.099,64.004,44.266c25.825,6.018,52.563,8.017,78.8,12.386
		c28.786,4.794,56.886,10.491,79.489,32.13c20.096,19.238,22.358,55.445,11.166,77.457c-19.787,38.91-50.21,63.449-93.75,72.862
		c-36.38,7.866-62.419,42.668-63.191,78.823c-0.444,20.873,7.668,38.976,25.066,48.142c25.098,13.224,23.844,34,21.679,55.771
		c-1.119,11.249-4.625,22.398-8.152,33.235c-3.552,10.915-12.73,12.557-24.365,11.755c1.086-5.482,0.863-10.809,3.125-14.684
		c11.539-19.784,6.248-39.249-0.431-58.614c-4.783-13.869-11.724-25.994-26.456-32.379c-9.835-4.263-11.713-12.07-10.201-23.466
		c1.334-10.052-1.818-21.775-6.188-31.295c-10.873-23.695,5.168-59.351,22.355-70.152c26.13-16.423,53.445-29.604,84.456-33.702
		c31.771-4.197,59.788-44.069,58.862-66.325c-0.821-19.778-15.54-28.825-27.855-39.873c-11.816-10.601-25.617-15.574-41.808-13.411
		c-3.618,0.483-7.951-0.416-11.238-2.087c-17.851-9.081-37.226-8.492-56.41-10.387c-47.305-4.67-85.609-24.336-109.032-68.081
		c-7.934-14.817,1.286-24.673,8.906-33.898c9.575-11.591,21.095-21.75,32.712-31.4c5.105-4.24,13.445-19.401,18.892-8.415
		C478.905,137.206,479.678,138.477,480.45,139.748z"/>
	<path fill-rule="evenodd" clip-rule="evenodd" d="M204.015,117.287c6.38-14.417,13.375-11.819,16.326,0
		c1.784,15.153,3.123,30.064,5.374,44.837c3.602,23.645,13.926,43.691,32.114,59.837c9.696,8.607,18.325,18.489,26.911,28.257
		c15.279,17.382,13.356,54.599-11.611,71.849c-21.181,14.635-43.811,16.206-67.5,11.059c-24.249-5.268-30.172-3.786-45.64,20.208
		c-1.896,2.942-3.724,5.952-5.29,9.078c-7.246,14.465-6.766,15.227,10.032,17.75c1.629,0.245,3.162,1.131,4.768,1.73
		c-5.885,13.705-16.091,20.762-28.869,20.926c-9.371,0.119-13.853-5.029-14.221-13.442c-0.254-5.826,0.041-12.412,2.508-17.479
		c7.361-15.11,15.611-29.816,24.082-44.349c10.322-17.709,26.984-19.357,45.128-16.792c14.9,2.107,29.792,4.913,44.773,5.637
		c17.988,0.871,30.399-9.251,36.384-26.427c3.491-10.019,0.024-17.062-8.283-22.327c-16.316-10.344-32.365-21.202-49.274-30.481
		c-9.398-5.157-9.355-12.785-9.992-21.157C209.266,183.539,206.67,151.086,204.015,117.287z"/>
	<path fill-rule="evenodd" clip-rule="evenodd" d="M204.132,498.583c-4.486-2.086-11.2-3.136-12.998-6.68
		c-1.529-3.011,1.849-9.38,4.386-13.429c9.229-14.728,18.006-29.917,28.861-43.396c12.041-14.952,25.924-28.473,39.635-41.975
		c2.313-2.276,8.155-2.418,11.69-1.336c1.556,0.476,1.992,6.503,1.904,9.983c-0.113,4.48-1.465,8.913-1.936,13.402
		c-3.934,37.553-31.825,57.496-58.015,78.537C214.388,496.319,209.364,496.77,204.132,498.583z"/>
	<path fill-rule="evenodd" clip-rule="evenodd" d="M371.597,63.376c-3.058,18.848-5.552,37.809-9.32,56.513
		c-4.386,21.771-8.544,43.234,0.724,64.848c1.586,3.699,1.971,8.396,1.383,12.408c-0.587,4.019-2.385,10.38-4.899,11.052
		c-4.714,1.261-11.468,0.812-15.348-1.864c-10.872-7.494-10.315-19.431-7.908-30.645c5.721-26.641,12.095-53.143,18.33-79.671
		c2.083-8.863,4.192-17.754,7.024-26.391c1.049-3.198,4.208-5.705,6.405-8.526C369.19,61.858,370.394,62.617,371.597,63.376z"/>
	<path fill-rule="evenodd" clip-rule="evenodd" d="M440.213,334.101c2.236-7.299,5.21-18.834,9.511-29.85
		c1.193-3.058,6.298-6.26,9.656-6.314c3.142-0.049,7.494,3.298,9.331,6.345c8.905,14.778,2.136,37.244-13.18,45.579
		C446.176,354.951,439.948,350.348,440.213,334.101z"/>
</g>
</svg>
